<svg width="37" height="16" viewBox="0 0 37 16" fill="none" xmlns="http://www.w3.org/2000/svg">
<path d="M0.953125 12H8.17188V10.0625H3.29688V0.6875H0.953125V12Z" fill="#263238"/>
<path d="M13.4531 12.1719C16.0234 12.1641 17.6172 10.4062 17.625 7.78125C17.6172 5.16406 16.0234 3.40625 13.4531 3.40625C10.8906 3.40625 9.28906 5.16406 9.29688 7.78125C9.28906 10.4062 10.8906 12.1641 13.4531 12.1719ZM11.6406 7.78125C11.6406 6.28906 12.2578 5.17188 13.4688 5.17188C14.6484 5.17188 15.2734 6.28906 15.2656 7.78125C15.2734 9.26562 14.6484 10.3672 13.4688 10.375C12.2578 10.3672 11.6406 9.26562 11.6406 7.78125Z" fill="#263238"/>
<path d="M22.8906 15.3594C25.3047 15.3594 27.0078 14.2578 27.0156 12.0938V3.51562H24.7188V4.9375H24.625C24.3125 4.25 23.625 3.40625 22.2031 3.40625C20.3281 3.40625 18.75 4.83594 18.75 7.70312C18.75 10.5312 20.2891 11.8828 22.2031 11.875C23.5703 11.8828 24.3203 11.1875 24.625 10.5H24.7344V12.0469C24.7266 13.2266 24.0078 13.6875 22.9375 13.6875C22.0156 13.6875 21.375 13.3828 21.25 12.7031H18.9688C19.1016 14.3047 20.5469 15.3594 22.8906 15.3594ZM21.125 7.73438C21.1172 6.27344 21.7422 5.25 22.9219 5.25C24.0859 5.25 24.7344 6.22656 24.7344 7.73438C24.7344 9.24219 24.0781 10.1328 22.9219 10.1406C21.75 10.1328 21.1172 9.20312 21.125 7.73438Z" fill="#263238"/>
<path d="M32.625 12.1719C35.1953 12.1641 36.7891 10.4062 36.7969 7.78125C36.7891 5.16406 35.1953 3.40625 32.625 3.40625C30.0625 3.40625 28.4609 5.16406 28.4688 7.78125C28.4609 10.4062 30.0625 12.1641 32.625 12.1719ZM30.8125 7.78125C30.8125 6.28906 31.4297 5.17188 32.6406 5.17188C33.8203 5.17188 34.4453 6.28906 34.4375 7.78125C34.4453 9.26562 33.8203 10.3672 32.6406 10.375C31.4297 10.3672 30.8125 9.26562 30.8125 7.78125Z" fill="#263238"/>
</svg>
